<?xml version="1.0" standalone="no"?>
<!DOCTYPE svg PUBLIC "-//W3C//DTD SVG 20010904//EN"
 "http://www.w3.org/TR/2001/REC-SVG-20010904/DTD/svg10.dtd">
<svg version="1.0" xmlns="http://www.w3.org/2000/svg"
 width="256.000000pt" height="256.000000pt" viewBox="0 0 256.000000 256.000000"
 preserveAspectRatio="xMidYMid meet">
<metadata>
Created by potrace 1.14, written by Peter Selinger 2001-2017
</metadata>
<g transform="translate(0.000000,256.000000) scale(0.100000,-0.100000)"
fill="#000000" stroke="none">
<path d="M910 1963 c-50 -49 -88 -107 -241 -373 -100 -173 -187 -322 -193
-330 -7 -10 -26 -15 -51 -15 -54 2 -72 -4 -78 -23 -3 -10 -21 -44 -39 -77 -19
-33 -56 -100 -82 -150 -27 -49 -51 -94 -56 -100 -4 -5 -34 -62 -68 -125 -33
-63 -70 -134 -83 -157 -42 -78 -150 -72 1267 -71 696 1 1266 4 1268 7 2 3 -34
71 -80 150 -46 79 -84 147 -84 152 0 5 -3 9 -8 9 -4 0 -13 14 -20 30 -8 17
-18 28 -23 25 -5 -4 -7 0 -4 7 2 7 -13 40 -33 73 l-38 60 -115 0 -116 0 -44
85 c-141 273 -269 495 -286 498 -14 2 -44 -31 -117 -133 -54 -74 -101 -135
-105 -135 -4 0 -14 12 -24 28 -9 15 -36 50 -61 77 -42 48 -46 50 -97 50 l-54
0 -116 233 c-117 232 -134 262 -150 262 -5 0 -36 -26 -69 -57z"/>
</g>
</svg>
