<svg width="777" height="95" viewBox="0 -40 700 180" fill="none" xmlns="http://www.w3.org/2000/svg">
<g opacity="0.5">
<path fill-rule="evenodd" clip-rule="evenodd" d="M-2.02656e-06 94.9997C-2.02656e-06 94.9997 192.477 -117.458 393.059 94.9997C393.059 94.9997 569.327 -118.754 777 94.9997" fill="black" fill-opacity="0.01"/>
<path d="M393.059 94.9997L392.332 95.6862L393.109 96.5101L393.83 95.6359L393.059 94.9997ZM-2.02656e-06 94.9997C0.741095 95.6711 0.741495 95.6707 0.742628 95.6694C0.743984 95.6679 0.745848 95.6659 0.748555 95.6629C0.75397 95.6569 0.762307 95.6478 0.773558 95.6355C0.796059 95.6108 0.83021 95.5735 0.875924 95.5239C0.967352 95.4246 1.10503 95.2759 1.28825 95.0802C1.65469 94.6888 2.20331 94.1095 2.92846 93.3617C4.37878 91.8662 6.53514 89.6968 9.3525 87.0092C14.9875 81.6336 23.2652 74.1861 33.8255 65.9099C54.9504 49.3538 85.1856 29.4996 121.652 16.2679C158.113 3.03838 200.783 -3.56456 246.812 6.34651C292.836 16.2565 342.302 42.6948 392.332 95.6862L393.786 94.3132C343.524 41.0755 293.712 14.3993 247.233 4.39132C200.759 -5.61556 157.701 1.06013 120.97 14.3879C84.2448 27.7134 53.8244 47.6952 32.5918 64.3357C21.9732 72.6577 13.6466 80.1487 7.972 85.562C5.13456 88.2688 2.95979 90.4565 1.49269 91.9694C0.759129 92.7259 0.202452 93.3136 -0.171713 93.7132C-0.358796 93.9131 -0.500255 94.0658 -0.595386 94.1692C-0.642952 94.2208 -0.678936 94.2601 -0.703251 94.2867C-0.715408 94.3001 -0.724648 94.3102 -0.73096 94.3171C-0.734115 94.3206 -0.736651 94.3234 -0.73823 94.3251C-0.740031 94.3271 -0.741099 94.3283 -2.02656e-06 94.9997ZM393.059 94.9997C393.83 95.6359 393.831 95.6355 393.832 95.6343C393.833 95.6328 393.834 95.6308 393.837 95.6278C393.842 95.6218 393.849 95.6127 393.86 95.6003C393.88 95.5756 393.911 95.5382 393.953 95.4883C394.037 95.3886 394.163 95.2392 394.331 95.0425C394.667 94.6491 395.171 94.0667 395.837 93.3147C397.171 91.8108 399.156 89.6292 401.759 86.926C406.964 81.5195 414.636 74.0289 424.491 65.7045C444.205 49.052 472.632 29.0838 507.509 15.7764C542.377 2.47208 583.68 -4.17108 629.183 5.7992C674.686 15.7694 724.474 42.3711 776.283 95.6965L777.717 94.3029C725.689 40.7515 675.567 13.9148 629.611 3.84554C583.657 -6.22359 541.954 0.492856 506.796 13.9078C471.646 27.3196 443.026 47.4302 423.2 64.1767C413.285 72.5518 405.563 80.0907 400.318 85.5389C397.695 88.2631 395.691 90.465 394.341 91.9879C393.666 92.7494 393.154 93.3411 392.81 93.7436C392.638 93.9448 392.508 94.0987 392.421 94.2028C392.377 94.2549 392.344 94.2945 392.322 94.3214C392.311 94.3348 392.302 94.3451 392.297 94.3521C392.294 94.3556 392.291 94.3585 392.29 94.3602C392.288 94.3623 392.287 94.3635 393.059 94.9997Z" fill="white" mask="url(#path-3-inside-1_0_1)"/>
</g>
<path fill-rule="evenodd" clip-rule="evenodd" d="M6.99995 33.9998C33.5097 33.9998 54.9999 55.4902 54.9999 81.9998C54.9999 108.51 33.5097 130 6.99995 130C-19.5097 130 -41.0001 108.51 -41.0001 81.9998C-41.0001 55.4902 -19.5097 33.9998 6.99995 33.9998Z" fill="#333333"/>
<path fill-rule="evenodd" clip-rule="evenodd" d="M35.2656 107.812L32.3124 110.766L15.9999 94.4529C15.0617 95.2968 14.0312 96.0483 12.9062 96.7031C11.7812 97.3601 10.6079 97.9224 9.39058 98.3906C8.17114 98.8608 6.88132 99.2123 5.52334 99.4453C4.16326 99.6803 2.8273 99.7969 1.51558 99.7969C-1.6727 99.7969 -4.64996 99.1881 -7.4141 97.9685C-10.1805 96.7514 -12.5953 95.11 -14.6563 93.0467C-16.7196 90.9856 -18.3367 88.571 -19.5079 85.8046C-20.6812 83.0404 -21.2657 80.1093 -21.2657 77.0155C-21.2657 73.8295 -20.6812 70.8521 -19.5079 68.0859C-18.3367 65.3218 -16.7196 62.9069 -14.6563 60.8436C-12.5953 58.7826 -10.1805 57.1653 -7.4141 55.992C-4.64996 54.821 -1.6727 54.2342 1.51558 54.2342C4.60936 54.2342 7.53826 54.821 10.3047 55.992C13.0688 57.1653 15.4836 58.7826 17.5469 60.8436C19.6079 62.9069 21.2493 65.3218 22.4687 68.0859C23.686 70.8521 24.2968 73.8295 24.2968 77.0155C24.2968 78.3293 24.1781 79.6653 23.9453 81.0232C23.7101 82.3834 23.3585 83.6733 22.8906 84.8904C22.4203 86.1101 21.8579 87.2811 21.2031 88.4061C20.5461 89.531 19.7968 90.5638 18.9531 91.4999L35.2656 107.812ZM-18.8751 77.0155C-18.8751 79.828 -18.3609 82.4537 -17.3282 84.8904C-16.2977 87.3295 -14.8452 89.485 -12.9688 91.3593C-11.0946 93.2358 -8.91488 94.7123 -6.42974 95.7889C-3.94688 96.8677 -1.29698 97.4062 1.51558 97.4062C4.32808 97.4062 6.95158 96.8677 9.39058 95.7889C11.8273 94.7123 13.9829 93.2358 15.8593 91.3593C17.7336 89.485 19.2101 87.3295 20.289 84.8904C21.3657 82.4537 21.9062 79.828 21.9062 77.0155C21.9062 74.203 21.3657 71.5552 20.289 69.0701C19.2101 66.5872 17.7336 64.4076 15.8593 62.5312C13.9829 60.6568 11.8273 59.2044 9.39058 58.1716C6.95158 57.1412 4.32808 56.6248 1.51558 56.6248C-1.29698 56.6248 -3.94688 57.1412 -6.42974 58.1716C-8.91488 59.2044 -11.0946 60.6568 -12.9688 62.5312C-14.8452 64.4076 -16.2977 66.5872 -17.3282 69.0701C-18.3609 71.5552 -18.8751 74.203 -18.8751 77.0155Z" fill="#5474FD"/>

<path fill-rule="evenodd" clip-rule="evenodd" d="M387 36C413.51 36 435 57.4901 435 84C435 110.509 413.51 132 387 132C360.49 132 339 110.509 339 84C339 57.4901 360.49 36 387 36Z" fill="#333333"/>
<path fill-rule="evenodd" clip-rule="evenodd" d="M387 53.5468C391.124 53.5468 395.016 54.3202 398.672 55.867C402.328 57.414 405.514 59.5476 408.234 62.2654C410.952 64.9857 413.086 68.1717 414.633 71.8281C416.18 75.4843 416.953 79.3756 416.953 83.4999C416.953 87.6263 416.18 91.5154 414.633 95.1718C413.086 98.828 410.952 102.016 408.234 104.734C405.514 107.454 402.328 109.586 398.672 111.133C395.016 112.679 391.124 113.453 387 113.453C382.873 113.453 378.984 112.679 375.328 111.133C371.672 109.586 368.484 107.454 365.766 104.734C363.045 102.016 360.914 98.828 359.367 95.1718C357.82 91.5154 357.047 87.6263 357.047 83.4999C357.047 79.3756 357.82 75.4843 359.367 71.8281C360.914 68.1717 363.045 64.9857 365.766 62.2654C368.484 59.5476 371.672 57.414 375.328 55.867C378.984 54.3202 382.873 53.5468 387 53.5468ZM387 111.062C390.843 111.062 394.429 110.337 397.758 108.883C401.084 107.43 404.016 105.486 406.547 103.047C408.984 100.516 410.928 97.5867 412.383 94.2576C413.835 90.9309 414.562 87.345 414.562 83.4999C414.562 79.6569 413.835 76.0708 412.383 72.742C410.928 69.4153 408.984 66.4841 406.547 63.9529C404.016 61.5162 401.084 59.5718 397.758 58.1172C394.429 56.6646 390.843 55.9372 387 55.9372C383.155 55.9372 379.569 56.6646 376.242 58.1172C372.913 59.5718 369.984 61.5162 367.453 63.9529C365.014 66.4841 363.07 69.4153 361.617 72.742C360.163 76.0708 359.437 79.6569 359.437 83.4999C359.437 87.345 360.163 90.9309 361.617 94.2576C363.07 97.5867 365.014 100.516 367.453 103.047C369.984 105.486 372.913 107.43 376.242 108.883C379.569 110.337 383.155 111.062 387 111.062ZM402.047 72.8123C402.328 72.4388 402.726 72.25 403.242 72.25C403.756 72.25 404.202 72.4388 404.578 72.8123C404.859 73.188 405 73.6341 405 74.1483C405 74.6646 404.811 75.0625 404.438 75.3438L383.906 95.3123C383.812 95.5012 383.647 95.6178 383.414 95.6639C383.179 95.7122 382.968 95.7342 382.781 95.7342C382.5 95.7342 382.241 95.7122 382.008 95.6639C381.773 95.6178 381.608 95.5012 381.516 95.3123L373.5 87.2966C373.124 86.9232 372.937 86.4772 372.937 85.9609C372.937 85.4466 373.124 85.0467 373.5 84.7654C373.781 84.392 374.179 84.2031 374.695 84.2031C375.209 84.2031 375.655 84.392 376.031 84.7654L382.781 91.5154L402.047 72.8123Z" fill="#FF6363"/>


<path fill-rule="evenodd" clip-rule="evenodd" d="M767 36C793.51 36 815 57.4901 815 84C815 110.509 793.51 132 767 132C740.49 132 719 110.509 719 84C719 57.4901 740.49 36 767 36Z" fill="#333333"/>
<path fill-rule="evenodd" clip-rule="evenodd" d="M797.586 82.6561C797.586 83.3131 797.491 83.9218 797.305 84.4841C797.116 85.0467 796.834 85.563 796.461 86.0311C796.085 86.5014 795.663 86.8748 795.195 87.1561C794.725 87.4374 794.211 87.6724 793.648 87.8592C793.93 88.3294 794.163 88.8218 794.351 89.3357C794.538 89.8523 794.633 90.4388 794.633 91.0936C794.633 91.6562 794.538 92.2185 794.351 92.7812C794.163 93.3438 793.93 93.86 793.648 94.3279C793.273 94.7036 792.851 95.0552 792.383 95.3826C791.913 95.7123 791.444 95.9694 790.977 96.1562C791.258 96.6264 791.491 97.1404 791.68 97.703C791.866 98.2656 791.961 98.828 791.961 99.3906C791.961 100.047 791.866 100.634 791.68 101.148C791.491 101.665 791.258 102.157 790.977 102.625C790.601 103.095 790.179 103.493 789.711 103.82C789.241 104.15 788.726 104.361 788.164 104.453C788.538 104.923 788.819 105.416 789.008 105.929C789.195 106.446 789.289 107.033 789.289 107.687C789.289 108.344 789.148 109.001 788.867 109.656C788.586 110.313 788.21 110.876 787.742 111.344C787.18 111.814 786.569 112.187 785.914 112.469C785.257 112.75 784.554 112.89 783.805 112.89H765.242C764.585 112.89 763.836 112.798 762.992 112.609C762.148 112.423 761.256 112.141 760.32 111.766C759.382 111.484 758.444 111.133 757.508 110.711C756.57 110.289 755.631 109.891 754.695 109.515C753.57 109.047 752.467 108.58 751.391 108.109C750.312 107.641 749.538 107.406 749.07 107.406H736.273V79.9843L737.398 79.8435C742.742 79.8435 746.398 79.8435 748.367 79.8435C749.211 79.8435 749.984 79.7514 750.687 79.5623C751.391 79.3757 752.116 78.9999 752.867 78.4373C753.711 77.9694 754.671 77.3123 755.75 76.4687C756.827 75.6248 758.116 74.5943 759.617 73.3749C762.522 70.9381 764.234 67.8904 764.75 64.2342C765.264 60.5781 765.523 58.4687 765.523 57.9061C765.523 57.3435 765.664 56.8054 765.945 56.2888C766.226 55.7748 766.6 55.3749 767.07 55.0936C767.538 54.7201 768.03 54.4608 768.547 54.3202C769.061 54.1794 769.553 54.1092 770.023 54.1092C770.773 54.1092 771.522 54.2037 772.273 54.3905C773.023 54.5794 773.726 55.0015 774.383 55.6562C775.038 56.313 775.554 57.1811 775.93 58.2577C776.303 59.3366 776.492 60.767 776.492 62.5467C776.492 64.1418 776.374 65.6647 776.141 67.117C775.905 68.5717 775.6 69.9537 775.226 71.2655C774.945 72.5794 774.594 73.7748 774.172 74.8514C773.75 75.9303 773.398 76.8445 773.117 77.5937H792.242C793.086 77.5937 793.811 77.7123 794.422 77.9452C795.031 78.1802 795.617 78.5317 796.18 78.9999C796.648 79.4701 796.999 80.0085 797.234 80.617C797.467 81.2279 797.586 81.9069 797.586 82.6561ZM792.242 85.6093C792.71 85.6093 793.132 85.5388 793.508 85.3983C793.881 85.2578 794.163 85.0467 794.351 84.7654C794.633 84.4841 794.866 84.1809 795.055 83.8515C795.241 83.5242 795.336 83.1263 795.336 82.6561C795.336 81.9069 795.055 81.2498 794.492 80.6875C793.93 80.1249 793.178 79.8435 792.242 79.8435H783.805C783.805 79.938 783.805 79.938 783.805 79.8435H769.32L770.164 78.156C772.788 71.6874 774.102 66.4842 774.102 62.5467C774.102 59.4529 773.585 57.649 772.555 57.1328C771.522 56.6185 770.678 56.3593 770.023 56.3593C769.742 56.3593 769.32 56.4999 768.758 56.7811C768.195 57.0625 767.914 57.4382 767.914 57.9061C767.914 58.4687 767.866 59.4068 767.773 60.7186C767.679 62.0327 767.398 63.5311 766.93 65.2187C766.459 66.9062 765.78 68.6419 764.89 70.4218C763.999 72.2036 762.757 73.7506 761.164 75.0624C759.569 76.3763 758.233 77.477 757.156 78.367C756.077 79.259 755.069 79.9843 754.133 80.5467C753.194 81.1093 752.256 81.5311 751.32 81.8124C750.382 82.0937 749.398 82.2342 748.367 82.2342C747.616 82.2342 746.796 82.2342 745.906 82.2342C745.014 82.2342 744.1 82.2342 743.164 82.2342C742.32 82.2342 741.498 82.2342 740.703 82.2342C739.905 82.2342 739.226 82.2342 738.664 82.2342V105.016H749.07C749.725 105.016 750.593 105.226 751.672 105.648C752.748 106.07 754.084 106.611 755.68 107.265C756.429 107.641 757.249 108.039 758.141 108.461C759.03 108.883 759.898 109.234 760.742 109.515C761.678 109.797 762.522 110.056 763.273 110.289C764.023 110.524 764.68 110.641 765.242 110.641H780.852H783.805C784.273 110.641 784.695 110.548 785.07 110.359C785.444 110.172 785.773 109.937 786.055 109.656C786.336 109.469 786.547 109.188 786.687 108.812C786.828 108.439 786.898 108.063 786.898 107.687C786.898 107.219 786.828 106.822 786.687 106.492C786.547 106.165 786.336 105.859 786.055 105.578C785.773 105.297 785.444 105.086 785.07 104.945C784.695 104.805 784.273 104.734 783.805 104.734H783.523V102.344H786.758C787.131 102.344 787.507 102.273 787.883 102.133C788.256 101.992 788.586 101.781 788.867 101.5C789.054 101.219 789.241 100.891 789.43 100.516C789.616 100.142 789.711 99.7663 789.711 99.3906C789.711 99.0169 789.616 98.6411 789.43 98.2656C789.241 97.8919 789.054 97.5625 788.867 97.2812C788.586 97.0943 788.256 96.9075 787.883 96.7186C787.507 96.532 787.131 96.4373 786.758 96.4373H785.773V94.0468H789.289C789.663 94.0468 790.038 93.9763 790.414 93.8358C790.788 93.6953 791.117 93.4842 791.398 93.203C791.68 92.9216 791.913 92.5942 792.102 92.2185C792.288 91.845 792.383 91.4693 792.383 91.0936C792.383 90.6257 792.288 90.2038 792.102 89.8281C791.913 89.4544 791.68 89.1734 791.398 88.9842C791.117 88.7029 790.788 88.4702 790.414 88.2811C790.038 88.0945 789.663 87.9998 789.289 87.9998H788.164V85.6093H792.242Z" fill="#00A2FF"/>

</svg>
