<svg width="777" height="95" viewBox="0 0 777 95" fill="none" xmlns="http://www.w3.org/2000/svg">
<g opacity="0.5">
<mask id="path-1-inside-1_0_46" fill="white">
<path fill-rule="evenodd" clip-rule="evenodd" d="M-2.02656e-06 94.9997C-2.02656e-06 94.9997 192.477 -117.458 393.059 94.9997C393.059 94.9997 569.327 -118.754 777 94.9997"/>
</mask>
<path fill-rule="evenodd" clip-rule="evenodd" d="M-2.02656e-06 94.9997C-2.02656e-06 94.9997 192.477 -117.458 393.059 94.9997C393.059 94.9997 569.327 -118.754 777 94.9997" fill="black" fill-opacity="0.01"/>
<path d="M393.059 94.9997L392.332 95.6862L393.109 96.5101L393.83 95.6359L393.059 94.9997ZM-2.02656e-06 94.9997C0.741095 95.6711 0.741495 95.6707 0.742628 95.6694C0.743984 95.6679 0.745848 95.6659 0.748555 95.6629C0.75397 95.6569 0.762307 95.6478 0.773558 95.6355C0.796059 95.6108 0.83021 95.5735 0.875924 95.5239C0.967352 95.4246 1.10503 95.2759 1.28825 95.0802C1.65469 94.6888 2.20331 94.1095 2.92846 93.3617C4.37878 91.8662 6.53514 89.6968 9.3525 87.0092C14.9875 81.6336 23.2652 74.1861 33.8255 65.9099C54.9504 49.3538 85.1856 29.4996 121.652 16.2679C158.113 3.03838 200.783 -3.56456 246.812 6.34651C292.836 16.2565 342.302 42.6948 392.332 95.6862L393.786 94.3132C343.524 41.0755 293.712 14.3993 247.233 4.39132C200.759 -5.61556 157.701 1.06013 120.97 14.3879C84.2448 27.7134 53.8244 47.6952 32.5918 64.3357C21.9732 72.6577 13.6466 80.1487 7.972 85.562C5.13456 88.2688 2.95979 90.4565 1.49269 91.9694C0.759129 92.7259 0.202452 93.3136 -0.171713 93.7132C-0.358796 93.9131 -0.500255 94.0658 -0.595386 94.1692C-0.642952 94.2208 -0.678936 94.2601 -0.703251 94.2867C-0.715408 94.3001 -0.724648 94.3102 -0.73096 94.3171C-0.734115 94.3206 -0.736651 94.3234 -0.73823 94.3251C-0.740031 94.3271 -0.741099 94.3283 -2.02656e-06 94.9997ZM393.059 94.9997C393.83 95.6359 393.831 95.6355 393.832 95.6343C393.833 95.6328 393.834 95.6308 393.837 95.6278C393.842 95.6218 393.849 95.6127 393.86 95.6003C393.88 95.5756 393.911 95.5382 393.953 95.4883C394.037 95.3886 394.163 95.2392 394.331 95.0425C394.667 94.6491 395.171 94.0667 395.837 93.3147C397.171 91.8108 399.156 89.6292 401.759 86.926C406.964 81.5195 414.636 74.0289 424.491 65.7045C444.205 49.052 472.632 29.0838 507.509 15.7764C542.377 2.47208 583.68 -4.17108 629.183 5.7992C674.686 15.7694 724.474 42.3711 776.283 95.6965L777.717 94.3029C725.689 40.7515 675.567 13.9148 629.611 3.84554C583.657 -6.22359 541.954 0.492856 506.796 13.9078C471.646 27.3196 443.026 47.4302 423.2 64.1767C413.285 72.5518 405.563 80.0907 400.318 85.5389C397.695 88.2631 395.691 90.465 394.341 91.9879C393.666 92.7494 393.154 93.3411 392.81 93.7436C392.638 93.9448 392.508 94.0987 392.421 94.2028C392.377 94.2549 392.344 94.2945 392.322 94.3214C392.311 94.3348 392.302 94.3451 392.297 94.3521C392.294 94.3556 392.291 94.3585 392.29 94.3602C392.288 94.3623 392.287 94.3635 393.059 94.9997Z" fill="white" mask="url(#path-1-inside-1_0_46)"/>
</g>
</svg>
